<svg xmlns="http://www.w3.org/2000/svg" width="160" height="48" viewBox="0 0 160 48">
  <g id="Group_70" data-name="Group 70" transform="translate(-11284 4485)">
    <path id="Path_13" data-name="Path 13" d="M24.151,0h111.7a24,24,0,1,1,0,48H24.151a24,24,0,1,1,0-48Z" transform="translate(11284 -4485)" fill="#58644c"/>
    <path id="Path_14" data-name="Path 14" d="M-19.74-7.32h-.02q-.74-.2-1.12-.33t-.93-.37a3.315,3.315,0,0,1-.93-.59,4.006,4.006,0,0,1-.68-.83,4.5,4.5,0,0,1-.74-2.5,4.493,4.493,0,0,1,1.36-3.3,4.493,4.493,0,0,1,3.3-1.36,4.472,4.472,0,0,1,3.01,1.11,4.564,4.564,0,0,1,1.57,2.79l-1.94.4a2.654,2.654,0,0,0-.89-1.65,2.545,2.545,0,0,0-1.75-.67,2.569,2.569,0,0,0-1.9.79,2.6,2.6,0,0,0-.78,1.89,2.63,2.63,0,0,0,.42,1.44,1.858,1.858,0,0,0,.81.69,13.763,13.763,0,0,0,1.71.57q.84.24,1.23.37t.97.39a3.567,3.567,0,0,1,.97.62,4.36,4.36,0,0,1,.71.86,4.876,4.876,0,0,1,.78,2.68A4.725,4.725,0,0,1-16.03-.84,4.751,4.751,0,0,1-19.5.6,4.73,4.73,0,0,1-22.8-.68a4.827,4.827,0,0,1-1.6-3.14l1.92-.36a3.71,3.71,0,0,0,1.04,2.07,2.73,2.73,0,0,0,1.94.73,2.8,2.8,0,0,0,2.07-.86,2.85,2.85,0,0,0,.85-2.08,3.01,3.01,0,0,0-.46-1.62,2.064,2.064,0,0,0-.86-.76A12.286,12.286,0,0,0-19.74-7.32ZM-5.22-2.44l1.4,1.4A5.419,5.419,0,0,1-7.8.6a5.4,5.4,0,0,1-3.96-1.64A5.4,5.4,0,0,1-13.4-5a5.4,5.4,0,0,1,1.64-3.96A5.4,5.4,0,0,1-7.8-10.6,5.419,5.419,0,0,1-3.82-8.96l-1.4,1.4A3.511,3.511,0,0,0-7.8-8.62a3.488,3.488,0,0,0-2.56,1.06A3.488,3.488,0,0,0-11.42-5a3.488,3.488,0,0,0,1.06,2.56A3.488,3.488,0,0,0-7.8-1.38,3.511,3.511,0,0,0-5.22-2.44ZM-2.3-10H-.38a4,4,0,0,1,2.2-.6,3.55,3.55,0,0,1,2.32.84L2.88-8.22a1.67,1.67,0,0,0-1.06-.4Q-.32-8.6-.32-5.06V0H-2.3ZM5.82-8.96A5.4,5.4,0,0,1,9.78-10.6a5.4,5.4,0,0,1,3.96,1.64A5.4,5.4,0,0,1,15.38-5a5.4,5.4,0,0,1-1.64,3.96A5.4,5.4,0,0,1,9.78.6,5.4,5.4,0,0,1,5.82-1.04,5.4,5.4,0,0,1,4.18-5,5.4,5.4,0,0,1,5.82-8.96Zm6.52,1.4A3.488,3.488,0,0,0,9.78-8.62,3.488,3.488,0,0,0,7.22-7.56,3.488,3.488,0,0,0,6.16-5,3.488,3.488,0,0,0,7.22-2.44,3.488,3.488,0,0,0,9.78-1.38a3.488,3.488,0,0,0,2.56-1.06A3.488,3.488,0,0,0,13.4-5,3.488,3.488,0,0,0,12.34-7.56ZM19.24,0h-2V-16h2Zm4.52,0h-2V-16h2Z" transform="translate(11364 -4454)" fill="#fff"/>
  </g>
</svg>
